<svg width="46" height="45" viewBox="0 0 46 45" fill="none" xmlns="http://www.w3.org/2000/svg">
<g clip-path="url(#clip0_2001_201)">
<path fill-rule="evenodd" clip-rule="evenodd" d="M22.8234 0C10.4448 0 0.437988 10.1406 0.437988 22.6859C0.437988 32.7141 6.84971 41.2027 15.7445 44.2071C16.8566 44.4329 17.2639 43.719 17.2639 43.1184C17.2639 42.5924 17.2272 40.7897 17.2272 38.9114C11.0002 40.2638 9.70344 36.2071 9.70344 36.2071C8.70271 33.5779 7.21995 32.9021 7.21995 32.9021C5.18183 31.5124 7.36841 31.5124 7.36841 31.5124C9.62921 31.6627 10.8155 33.8411 10.8155 33.8411C12.8165 37.2963 16.0409 36.32 17.3381 35.7189C17.5232 34.2541 18.1166 33.24 18.7467 32.6767C13.7801 32.1508 8.55471 30.1978 8.55471 21.4838C8.55471 19.0049 9.44364 16.9768 10.8522 15.3994C10.6299 14.8362 9.85145 12.5071 11.0749 9.38975C11.0749 9.38975 12.965 8.78869 17.2268 11.7184C19.0514 11.2218 20.9331 10.9692 22.8234 10.9671C24.7135 10.9671 26.6402 11.2303 28.4195 11.7184C32.6817 8.78869 34.5719 9.38975 34.5719 9.38975C35.7953 12.5071 35.0163 14.8362 34.7941 15.3994C36.2397 16.9768 37.092 19.0049 37.092 21.4838C37.092 30.1978 31.8666 32.113 26.8629 32.6767C27.6785 33.3903 28.3824 34.7422 28.3824 36.8833C28.3824 39.9254 28.3457 42.367 28.3457 43.1179C28.3457 43.719 28.7535 44.4329 29.8651 44.2075C38.7599 41.2022 45.1716 32.7141 45.1716 22.6859C45.2083 10.1406 35.1648 0 22.8234 0Z" fill="#24292F"/>
</g>
<defs>
<clipPath id="clip0_2001_201">
<rect width="44.7337" height="45" fill="white" transform="translate(0.437988)"/>
</clipPath>
</defs>
</svg>
