<svg width="44" height="44" viewBox="0 0 44 44" fill="none" xmlns="http://www.w3.org/2000/svg">
<g clip-path="url(#clip0_2001_194)">
<rect width="44" height="44" fill="white"/>
<path d="M21.9998 18V26.52H33.8397C33.3198 29.26 31.7596 31.5801 29.4197 33.1401L36.5596 38.6801C40.7196 34.8402 43.1196 29.2002 43.1196 22.5002C43.1196 20.9402 42.9797 19.4401 42.7196 18.0002L21.9998 18Z" fill="#4285F4"/>
<path d="M9.67029 26.1873L8.05996 27.42L2.35986 31.8599C5.97985 39.0398 13.3993 43.9999 21.9992 43.9999C27.9391 43.9999 32.919 42.0399 36.5591 38.68L29.4191 33.1399C27.4591 34.4599 24.9591 35.26 21.9992 35.26C16.2793 35.26 11.4194 31.4 9.67928 26.2L9.67029 26.1873Z" fill="#34A853"/>
<path d="M2.35983 12.1399C0.85991 15.0998 0 18.4398 0 21.9998C0 25.5597 0.85991 28.8998 2.35983 31.8596C2.35983 31.8795 9.67995 26.1796 9.67995 26.1796C9.23996 24.8596 8.97988 23.4597 8.97988 21.9995C8.97988 20.5393 9.23996 19.1394 9.67995 17.8194L2.35983 12.1399Z" fill="#FBBC05"/>
<path d="M21.9997 8.75999C25.2397 8.75999 28.1197 9.87996 30.4197 12.04L36.7196 5.74007C32.8996 2.18014 27.9398 0 21.9997 0C13.3998 0 5.97985 4.93999 2.35986 12.14L9.67976 17.82C11.4197 12.62 16.2797 8.75999 21.9997 8.75999Z" fill="#EA4335"/>
</g>
<defs>
<clipPath id="clip0_2001_194">
<rect width="44" height="44" fill="white"/>
</clipPath>
</defs>
</svg>
