<svg width="44" height="45" viewBox="0 0 44 45" fill="none" xmlns="http://www.w3.org/2000/svg">
<path d="M21.9196 0H21.82C9.76916 0 0 9.8302 0 21.9564V22.0566C0 34.1828 9.76916 44.013 21.82 44.013H21.9196C33.9705 44.013 43.7396 34.1828 43.7396 22.0566V21.9564C43.7396 9.8302 33.9705 0 21.9196 0Z" fill="url(#paint0_linear_2001_203)"/>
<path d="M28.6377 8.9541H15.1034C11.3643 8.9541 8.32251 12.0149 8.32251 15.7774V28.2367C8.32251 31.9991 11.3643 35.06 15.1034 35.06H28.6377C32.3768 35.06 35.4186 31.9991 35.4186 28.2367V15.7774C35.4186 12.0149 32.3768 8.9541 28.6377 8.9541ZM10.7146 15.7774C10.7146 13.3426 12.6838 11.3611 15.1034 11.3611H28.6377C31.0574 11.3611 33.0265 13.3426 33.0265 15.7774V28.2367C33.0265 30.6715 31.0574 32.6529 28.6377 32.6529H15.1034C12.6838 32.6529 10.7146 30.6715 10.7146 28.2367V15.7774Z" fill="white"/>
<path d="M21.8706 28.3528C25.3477 28.3528 28.1781 25.5063 28.1781 22.006C28.1781 18.5057 25.3492 15.6592 21.8706 15.6592C18.3921 15.6592 15.5632 18.5057 15.5632 22.006C15.5632 25.5063 18.3921 28.3528 21.8706 28.3528ZM21.8706 18.0678C24.0298 18.0678 25.786 19.8349 25.786 22.0075C25.786 24.1802 24.0298 25.9473 21.8706 25.9473C19.7115 25.9473 17.9553 24.1802 17.9553 22.0075C17.9553 19.8349 19.7115 18.0678 21.8706 18.0678Z" fill="white"/>
<path d="M28.7619 16.6843C29.6982 16.6843 30.4614 15.9179 30.4614 14.9742C30.4614 14.0305 29.6998 13.2642 28.7619 13.2642C27.8241 13.2642 27.0625 14.0305 27.0625 14.9742C27.0625 15.9179 27.8241 16.6843 28.7619 16.6843Z" fill="white"/>
<defs>
<linearGradient id="paint0_linear_2001_203" x1="6.39016" y1="37.5829" x2="37.5423" y2="6.62569" gradientUnits="userSpaceOnUse">
<stop stop-color="#FAAD4F"/>
<stop offset="0.35" stop-color="#DD2A7B"/>
<stop offset="0.62" stop-color="#9537B0"/>
<stop offset="1" stop-color="#515BD4"/>
</linearGradient>
</defs>
</svg>
