<svg width="37" height="37" viewBox="0 0 37 37" fill="none" xmlns="http://www.w3.org/2000/svg">
<path d="M24.6668 13.875C24.6668 14.7264 23.9766 15.4167 23.1252 15.4167C22.2737 15.4167 21.5835 14.7264 21.5835 13.875C21.5835 13.0236 22.2737 12.3333 23.1252 12.3333C23.9766 12.3333 24.6668 13.0236 24.6668 13.875Z" fill="#18A0FB"/>
<path fill-rule="evenodd" clip-rule="evenodd" d="M14.78 6.35664C19.1444 1.99225 26.2791 1.99225 30.6435 6.35664C34.9887 10.7018 35.0255 17.8336 30.6486 22.0384C27.8449 25.023 23.6771 25.9948 19.9358 25.0133C19.616 24.9351 19.3409 25.0109 19.1171 25.2348L10.7825 33.5693C10.5601 33.7917 10.2585 33.9167 9.94397 33.9167H4.26939C3.61444 33.9167 3.0835 33.3857 3.0835 32.7308V27.0562C3.0835 26.7417 3.20844 26.44 3.43084 26.2176L11.7654 17.8831C11.8273 17.8212 11.8579 17.76 11.8718 17.6561C11.8886 17.5296 11.8775 17.341 11.8114 17.072C10.8163 13.466 11.8266 9.31006 14.78 6.35664ZM28.9664 8.03375C25.5283 4.5956 19.8953 4.5956 16.4571 8.03375C14.0951 10.3958 13.3307 13.6796 14.1012 16.4536L14.1091 16.4834C14.3196 17.3255 14.4239 18.5788 13.4425 19.5602L5.45529 27.5474V31.5449H9.45275L17.4399 23.5577C18.2787 22.7189 19.4204 22.4397 20.5168 22.7138L20.531 22.7173C23.5156 23.5028 26.7787 22.7087 28.938 20.3951C28.9536 20.3785 28.9696 20.3622 28.9862 20.3465C32.3869 17.1003 32.4156 11.483 28.9664 8.03375Z" fill="#18A0FB"/>
</svg>
