<svg width="41" height="40" viewBox="0 0 41 40" fill="none" xmlns="http://www.w3.org/2000/svg">
<path fill-rule="evenodd" clip-rule="evenodd" d="M15.2439 7.57143C13.0666 7.57143 11.3016 9.29833 11.3016 11.4286C11.3016 13.5588 13.0666 15.2857 15.2439 15.2857C17.4212 15.2857 19.1862 13.5588 19.1862 11.4286C19.1862 9.29833 17.4212 7.57143 15.2439 7.57143ZM8.67337 11.4286C8.67337 7.87817 11.6151 5 15.2439 5C18.8727 5 21.8144 7.87817 21.8144 11.4286C21.8144 14.979 18.8727 17.8571 15.2439 17.8571C11.6151 17.8571 8.67337 14.979 8.67337 11.4286Z" fill="#030D45"/>
<path fill-rule="evenodd" clip-rule="evenodd" d="M3.41699 11.4288C3.41699 10.7187 4.00534 10.143 4.73109 10.143H9.9875C10.7133 10.143 11.3016 10.7185 11.3016 11.4286C11.3016 12.1387 10.7133 12.7145 9.9875 12.7145H4.73109C4.00534 12.7145 3.41699 12.1388 3.41699 11.4288Z" fill="#030D45"/>
<path fill-rule="evenodd" clip-rule="evenodd" d="M19.1862 11.4286C19.1862 10.7185 19.7745 10.1432 20.5002 10.1432L36.2694 10.1432C36.9952 10.1432 37.5835 10.7189 37.5835 11.4289C37.5835 12.139 36.9952 12.7147 36.2694 12.7147L20.5002 12.7147C19.7745 12.7147 19.1862 12.1387 19.1862 11.4286Z" fill="#030D45"/>
<path fill-rule="evenodd" clip-rule="evenodd" d="M25.7567 24.7142C27.934 24.7142 29.699 26.4411 29.699 28.5713C29.699 30.7016 27.934 32.4285 25.7567 32.4285C23.5794 32.4285 21.8144 30.7016 21.8144 28.5713C21.8144 26.4411 23.5794 24.7142 25.7567 24.7142ZM32.3272 28.5713C32.3272 25.0209 29.3855 22.1427 25.7567 22.1427C22.1279 22.1427 19.1862 25.0209 19.1862 28.5713C19.1862 32.1217 22.1279 34.9999 25.7567 34.9999C29.3855 34.9999 32.3272 32.1217 32.3272 28.5713Z" fill="#030D45"/>
<path fill-rule="evenodd" clip-rule="evenodd" d="M37.5836 28.5716C37.5836 27.8615 36.9953 27.2858 36.2695 27.2858H31.0131C30.2873 27.2858 29.699 27.8612 29.699 28.5713C29.699 29.2814 30.2873 29.8573 31.0131 29.8573H36.2695C36.9953 29.8573 37.5836 29.2816 37.5836 28.5716Z" fill="#030D45"/>
<path fill-rule="evenodd" clip-rule="evenodd" d="M21.8144 28.5713C21.8144 27.8612 21.2261 27.286 20.5004 27.286H4.73113C4.00538 27.286 3.41703 27.8616 3.41703 28.5717C3.41703 29.2818 4.00537 29.8574 4.73113 29.8574L20.5004 29.8574C21.2261 29.8574 21.8144 29.2814 21.8144 28.5713Z" fill="#030D45"/>
</svg>
